<svg width="36" height="36" viewBox="0 0 36 36" fill="none" xmlns="http://www.w3.org/2000/svg">
<circle cx="18" cy="18" r="18" fill="#4682F0" fill-opacity="0.25"/>
<path d="M18.0002 17.7917C18.4029 17.7917 18.7467 17.6493 19.0314 17.3646C19.3161 17.0799 19.4585 16.7361 19.4585 16.3334C19.4585 15.9306 19.3161 15.5868 19.0314 15.3021C18.7467 15.0174 18.4029 14.875 18.0002 14.875C17.5974 14.875 17.2536 15.0174 16.9689 15.3021C16.6842 15.5868 16.5418 15.9306 16.5418 16.3334C16.5418 16.7361 16.6842 17.0799 16.9689 17.3646C17.2536 17.6493 17.5974 17.7917 18.0002 17.7917ZM18.0002 24.6875C19.8474 23.007 21.212 21.4827 22.0939 20.1146C22.9759 18.7465 23.4168 17.5417 23.4168 16.5C23.4168 14.8611 22.8925 13.5209 21.8439 12.4792C20.7953 11.4375 19.5141 10.9167 18.0002 10.9167C16.4863 10.9167 15.205 11.4375 14.1564 12.4792C13.1078 13.5209 12.5835 14.8611 12.5835 16.5C12.5835 17.5417 13.0349 18.7465 13.9377 20.1146C14.8404 21.4827 16.1946 23.007 18.0002 24.6875ZM18.0002 26.3334C15.7641 24.4306 14.0939 22.6632 12.9897 21.0313C11.8856 19.3993 11.3335 17.8889 11.3335 16.5C11.3335 14.4167 12.0036 12.757 13.3439 11.5209C14.6842 10.2847 16.2363 9.66669 18.0002 9.66669C19.7641 9.66669 21.3161 10.2847 22.6564 11.5209C23.9967 12.757 24.6668 14.4167 24.6668 16.5C24.6668 17.8889 24.1147 19.3993 23.0106 21.0313C21.9064 22.6632 20.2363 24.4306 18.0002 26.3334Z" fill="#4682F0"/>
</svg>
