<svg width="188" height="70" viewBox="0 0 188 70" fill="none" xmlns="http://www.w3.org/2000/svg">
<path fill-rule="evenodd" clip-rule="evenodd" d="M0.182129 23.4353C12.9636 23.4353 23.4211 33.8932 23.4211 46.6747H0.376009C0.269449 46.6747 0.182129 46.5873 0.182129 46.4808V23.4353ZM46.6603 23.4353H69.7053C69.8119 23.4353 69.8992 23.5226 69.8992 23.6292V46.6747C57.1175 46.6747 46.6603 36.2168 46.6603 23.4353Z" fill="#6EA0FA"/>
<path fill-rule="evenodd" clip-rule="evenodd" d="M46.6603 69.9134H23.6148C23.5084 69.9134 23.4211 69.8261 23.4211 69.7195V46.6747H69.8992C69.8992 59.4557 59.4418 69.9134 46.6603 69.9134ZM23.4211 0.196531H46.4664C46.5729 0.196531 46.6603 0.283851 46.6603 0.390411V23.4353H0.182129C0.182129 10.6542 10.6398 0.196531 23.4211 0.196531Z" fill="#4682F0"/>
<path d="M178.528 66.712V56.2723C178.528 56.1699 178.612 56.086 178.715 56.086H179.881C179.983 56.086 180.067 56.1699 180.067 56.2723V60.7226H180.012C179.96 60.7226 179.916 60.7038 179.879 60.667C179.843 60.6296 179.825 60.585 179.826 60.5334C179.842 59.5498 179.987 58.7109 180.259 58.0195C180.549 57.2839 180.992 56.7237 181.585 56.3389C182.179 55.9543 182.928 55.7619 183.833 55.7619H183.914C185.277 55.7619 186.286 56.1873 186.941 57.0378C187.596 57.8882 187.923 59.1162 187.923 60.7226V66.712C187.923 66.8143 187.839 66.8982 187.737 66.8982H186.166C186.063 66.8982 185.979 66.8143 185.979 66.712V60.3177C185.979 59.4809 185.743 58.8092 185.27 58.3028C184.798 57.7966 184.15 57.5438 183.327 57.5438C182.476 57.5438 181.788 57.8068 181.262 58.3335C180.735 58.8599 180.472 59.5619 180.472 60.4389V66.712C180.472 66.8143 180.388 66.8982 180.286 66.8982H178.715C178.612 66.8982 178.528 66.8143 178.528 66.712ZM143.374 67.1809C142.564 67.1809 141.866 67.0433 141.279 66.7665C140.691 66.4895 140.239 66.088 139.922 65.5614C139.604 65.0349 139.446 64.4006 139.446 63.6581C139.446 62.8891 139.618 62.2476 139.962 61.7347C140.307 61.2218 140.809 60.8336 141.471 60.5706C142.132 60.3072 142.929 60.1756 143.86 60.1756H146.407C146.51 60.1756 146.593 60.0919 146.593 59.9894V59.9122C146.593 59.1697 146.401 58.6096 146.016 58.2318C145.631 57.8539 145.068 57.6649 144.325 57.6649C143.907 57.6649 143.475 57.6717 143.03 57.6852C142.585 57.6983 142.159 57.7119 141.754 57.7256C141.437 57.736 141.152 57.7512 140.901 57.77C140.848 57.7736 140.8 57.7571 140.761 57.7205C140.722 57.6842 140.701 57.6379 140.701 57.5844V56.2564C140.701 56.1589 140.775 56.0788 140.872 56.071C141.118 56.0498 141.375 56.031 141.643 56.0149C141.974 55.9949 142.314 55.9809 142.665 55.9741C143.016 55.9674 143.353 55.9644 143.678 55.9644C144.785 55.9644 145.689 56.0957 146.391 56.3589C147.093 56.622 147.612 57.0509 147.95 57.6446C148.288 58.2385 148.456 59.0418 148.456 60.0541V61.4449C148.456 61.5485 148.372 61.633 148.268 61.633H143.779C142.996 61.633 142.395 61.8225 141.977 62.2003C141.559 62.5785 141.349 63.0644 141.349 63.6581C141.349 64.252 141.559 64.7315 141.977 65.0954C142.395 65.4605 142.996 65.6428 143.779 65.6428C144.238 65.6428 144.677 65.558 145.095 65.3895C145.514 65.2208 145.861 64.9374 146.138 64.5391C146.384 64.1858 146.531 63.7126 146.579 63.1202C146.588 63.0223 146.669 62.9475 146.767 62.9475H148.268C148.372 62.9475 148.456 63.032 148.456 63.1356V66.7115C148.456 66.8141 148.373 66.8978 148.27 66.8978H147.104C147.001 66.8978 146.918 66.8141 146.918 66.7115V65.6736C146.918 65.588 146.862 65.5155 146.779 65.4933C146.697 65.4715 146.613 65.5064 146.57 65.5802C146.568 65.584 146.565 65.588 146.563 65.5914C146.259 66.1109 145.841 66.5064 145.308 66.7762C144.775 67.0462 144.13 67.1809 143.374 67.1809ZM105.248 67.1809C104.438 67.1809 103.74 67.0433 103.153 66.7665C102.566 66.4895 102.113 66.088 101.796 65.5614C101.479 65.0349 101.32 64.4006 101.32 63.6581C101.32 62.8891 101.492 62.2476 101.836 61.7347C102.181 61.2218 102.683 60.8336 103.345 60.5706C104.006 60.3072 104.803 60.1756 105.734 60.1756H108.281C108.384 60.1756 108.468 60.0919 108.468 59.9894V59.9122C108.468 59.1697 108.275 58.6096 107.891 58.2318C107.506 57.8539 106.942 57.6649 106.2 57.6649C105.781 57.6649 105.35 57.6717 104.904 57.6852C104.459 57.6983 104.033 57.7119 103.628 57.7256C103.311 57.736 103.026 57.7512 102.775 57.77C102.722 57.7736 102.674 57.7571 102.635 57.7205C102.596 57.6842 102.575 57.6379 102.575 57.5844V56.2564C102.575 56.1589 102.649 56.0788 102.746 56.071C102.992 56.0498 103.249 56.031 103.517 56.0149C103.848 55.9949 104.188 55.9809 104.539 55.9741C104.89 55.9674 105.228 55.9644 105.552 55.9644C106.659 55.9644 107.563 56.0957 108.265 56.3589C108.967 56.622 109.486 57.0509 109.824 57.6446C110.162 58.2385 110.33 59.0418 110.33 60.0541V61.4449C110.33 61.5485 110.246 61.633 110.142 61.633H105.653C104.87 61.633 104.269 61.8225 103.851 62.2003C103.433 62.5785 103.224 63.0644 103.224 63.6581C103.224 64.252 103.433 64.7315 103.851 65.0954C104.269 65.4605 104.87 65.6428 105.653 65.6428C106.112 65.6428 106.551 65.558 106.97 65.3895C107.388 65.2208 107.735 64.9374 108.012 64.5391C108.258 64.1858 108.405 63.7126 108.454 63.1202C108.462 63.0223 108.543 62.9475 108.641 62.9475H110.142C110.246 62.9475 110.33 63.032 110.33 63.1356V66.7115C110.33 66.8141 110.247 66.8978 110.144 66.8978H108.978C108.875 66.8978 108.792 66.8141 108.792 66.7115V65.6736C108.792 65.588 108.736 65.5155 108.653 65.4933C108.571 65.4715 108.487 65.5064 108.444 65.5802C108.442 65.584 108.439 65.588 108.438 65.5914C108.133 66.1109 107.715 66.5064 107.182 66.7762C106.649 67.0462 106.004 67.1809 105.248 67.1809ZM125.128 42.7486C124.319 42.7486 123.62 42.6108 123.033 42.3342C122.446 42.0571 121.993 41.6556 121.676 41.1291C121.359 40.6024 121.201 39.9681 121.201 39.2256C121.201 38.4566 121.373 37.8154 121.717 37.3022C122.061 36.7893 122.564 36.4013 123.225 36.1381C123.887 35.8747 124.683 35.7434 125.614 35.7434H128.162C128.264 35.7434 128.348 35.6594 128.348 35.5571V35.4799C128.348 34.7374 128.156 34.1773 127.771 33.7993C127.386 33.4215 126.823 33.2325 126.08 33.2325C125.662 33.2325 125.23 33.2392 124.784 33.253C124.339 33.2661 123.914 33.2796 123.509 33.2931C123.191 33.3037 122.907 33.3187 122.656 33.3375C122.603 33.3413 122.555 33.3249 122.516 33.2883C122.476 33.2517 122.456 33.2054 122.456 33.1519V31.8241C122.456 31.7267 122.529 31.6465 122.626 31.6385C122.872 31.6176 123.13 31.5987 123.397 31.5825C123.728 31.5626 124.069 31.5486 124.42 31.5419C124.771 31.5351 125.108 31.5321 125.433 31.5321C126.539 31.5321 127.444 31.6634 128.145 31.9265C128.847 32.1895 129.367 32.6187 129.705 33.2122C130.042 33.8061 130.211 34.6093 130.211 35.6218V37.0126C130.211 37.116 130.126 37.2008 130.022 37.2008H125.534C124.751 37.2008 124.15 37.39 123.732 37.768C123.313 38.1463 123.104 38.6321 123.104 39.2256C123.104 39.8195 123.313 40.299 123.732 40.6631C124.15 41.028 124.751 41.2103 125.534 41.2103C125.993 41.2103 126.431 41.1257 126.85 40.957C127.268 40.7883 127.616 40.505 127.892 40.1068C128.138 39.7533 128.286 39.2802 128.334 38.6877C128.342 38.5898 128.423 38.515 128.522 38.515H130.022C130.126 38.515 130.211 38.5998 130.211 38.7032V42.2793C130.211 42.3816 130.127 42.4655 130.024 42.4655H128.858C128.756 42.4655 128.672 42.3816 128.672 42.2793V41.2412C128.672 41.1557 128.617 41.083 128.534 41.0608C128.452 41.039 128.367 41.0741 128.325 41.1479C128.323 41.1515 128.319 41.1557 128.318 41.1591C128.014 41.6786 127.596 42.0742 127.062 42.344C126.529 42.6138 125.885 42.7486 125.128 42.7486ZM95.4298 18.3978C94.2826 18.3978 93.243 18.209 92.3119 17.8307C91.3803 17.4531 90.5805 16.9195 89.9124 16.2315C89.2439 15.5431 88.728 14.7297 88.3637 13.7914C87.999 12.8535 87.8167 11.8308 87.8167 10.7238V10.2785C87.8167 9.33342 87.9818 8.4192 88.3127 7.53479C88.6432 6.65102 89.1227 5.85457 89.7502 5.14544C90.378 4.43715 91.144 3.87708 92.0485 3.46543C92.9527 3.05356 93.972 2.84763 95.1057 2.84763C96.3341 2.84763 97.4276 3.08063 98.3858 3.54619C99.3444 4.01176 100.114 4.66 100.694 5.48986C101.238 6.26707 101.568 7.16035 101.685 8.16739C101.692 8.22194 101.676 8.27162 101.639 8.31264C101.603 8.35408 101.556 8.37522 101.5 8.37522H99.8455C99.7525 8.37522 99.6747 8.30778 99.6609 8.21559C99.5512 7.46354 99.2878 6.83137 98.8717 6.32014C98.4262 5.77359 97.8767 5.36152 97.2217 5.08497C96.5671 4.80821 95.8616 4.67015 95.1057 4.67015C94.3367 4.67015 93.6276 4.80821 92.9798 5.08497C92.3318 5.36152 91.7751 5.75647 91.3091 6.26939C90.8435 6.78232 90.4826 7.39673 90.2259 8.11221C89.9697 8.82726 89.8416 9.63047 89.8416 10.5216C89.8416 11.5342 89.9798 12.4213 90.2564 13.1842C90.5334 13.9468 90.9215 14.5811 91.4205 15.0872C91.9201 15.5934 92.5106 15.975 93.1923 16.2315C93.8737 16.4877 94.6203 16.6161 95.4298 16.6161C96.5773 16.6161 97.5864 16.3831 98.4566 15.9175C98.9926 15.631 99.4476 15.2919 99.8225 14.9005C99.8827 14.8377 99.9753 14.8244 100.051 14.8686C100.126 14.9126 100.161 15.0003 100.135 15.0834L100.067 15.3101C100.04 15.3993 99.9536 15.4538 99.8616 15.4403C99.7694 15.427 99.702 15.3492 99.702 15.2562V12.7123C99.702 12.6099 99.6182 12.526 99.5157 12.526H95.0899C94.9875 12.526 94.9036 12.442 94.9036 12.3397V11.0521C94.9036 10.9496 94.9875 10.8656 95.0899 10.8656H101.379C101.481 10.8656 101.565 10.9496 101.565 11.0521C101.565 12.5613 101.565 14.0709 101.565 15.5807C101.565 15.6236 101.552 15.6608 101.526 15.6951C100.87 16.534 100.032 17.1931 99.0138 17.6692C97.9748 18.1546 96.7798 18.3978 95.4298 18.3978ZM95.2476 42.8303C93.8978 42.8303 92.7472 42.5939 91.7954 42.1215C90.8435 41.6492 90.0777 41.0348 89.4969 40.2792C88.9168 39.5231 88.4916 38.7032 88.2216 37.8188C87.9514 36.935 87.8167 36.081 87.8167 35.2575V34.8118C87.8167 33.9213 87.9548 33.0303 88.232 32.1392C88.5085 31.2486 88.9373 30.4391 89.5177 29.7101C90.098 28.9808 90.8537 28.3937 91.7852 27.9482C92.7164 27.503 93.8306 27.2801 95.126 27.2801C96.4489 27.2801 97.583 27.5097 98.5277 27.9685C99.4726 28.4273 100.222 29.0682 100.775 29.8921C101.294 30.663 101.623 31.5645 101.762 32.5965C101.77 32.6514 101.754 32.7022 101.717 32.7441C101.681 32.7861 101.633 32.8077 101.577 32.8077H99.9246C99.832 32.8077 99.755 32.7417 99.7404 32.6502C99.6197 31.884 99.3573 31.2442 98.9531 30.7323C98.5209 30.1862 97.9778 29.7773 97.323 29.5071C96.6684 29.2373 95.936 29.1024 95.126 29.1024C94.2486 29.1024 93.479 29.2542 92.8181 29.5578C92.1563 29.8616 91.6066 30.287 91.1676 30.8336C90.7287 31.3799 90.3983 32.0112 90.1754 32.7267C89.9528 33.4418 89.8416 34.2183 89.8416 35.0554C89.8416 35.8518 89.9528 36.6075 90.1754 37.323C90.3983 38.0382 90.7355 38.6727 91.1879 39.226C91.64 39.7798 92.2039 40.2147 92.8787 40.532C93.5534 40.8494 94.3431 41.0077 95.2476 41.0077C96.5164 41.0077 97.583 40.6908 98.4469 40.0563C99.2738 39.4489 99.7916 38.5812 100 37.4547C100.016 37.3659 100.093 37.3027 100.183 37.3027H101.835C101.891 37.3027 101.94 37.3253 101.976 37.3682C102.014 37.4116 102.028 37.4631 102.019 37.5192C101.866 38.4473 101.535 39.2994 101.028 40.0766C100.481 40.9132 99.7254 41.5813 98.7603 42.081C97.7953 42.5803 96.6244 42.8303 95.2476 42.8303ZM93.9864 67.2623C92.7582 67.2623 91.7119 67.0602 90.8482 66.6551C89.9843 66.2502 89.3225 65.6901 88.8637 64.9746C88.4377 64.3108 88.2095 63.5646 88.1791 62.7377C88.1772 62.6851 88.195 62.6392 88.2311 62.6016C88.2677 62.5639 88.3123 62.5447 88.3652 62.5447H89.9798C90.0779 62.5447 90.1589 62.6204 90.1657 62.7183C90.1923 63.1054 90.3088 63.4936 90.5139 63.8811C90.7503 64.3264 91.1484 64.6977 91.7085 64.9949C92.269 65.2918 93.028 65.4402 93.9864 65.4402C94.8776 65.4402 95.6064 65.3089 96.1734 65.0453C96.7403 64.7822 97.1585 64.4383 97.4287 64.0126C97.6983 63.5877 97.8338 63.1255 97.8338 62.6259C97.8338 62.0185 97.5703 61.5157 97.0441 61.1176C96.5174 60.7192 95.7478 60.4727 94.7353 60.3782L93.0954 60.2367C91.7861 60.1287 90.7401 59.7236 89.9572 59.0221C89.1739 58.3197 88.7829 57.3954 88.7829 56.2479C88.7829 55.3434 89.002 54.5538 89.4407 53.8789C89.8796 53.204 90.4904 52.6742 91.2729 52.2894C92.0563 51.9048 92.9671 51.7124 94.0067 51.7124C95.0328 51.7124 95.9368 51.9014 96.72 52.2792C97.5029 52.6575 98.1137 53.1871 98.5522 53.8687C98.9609 54.5041 99.1797 55.2532 99.2074 56.1164C99.2089 56.1689 99.1914 56.2143 99.1548 56.2519C99.1182 56.2896 99.0736 56.3088 99.0212 56.3088H97.4069C97.3079 56.3088 97.227 56.2321 97.2211 56.1338C97.1969 55.7257 97.0866 55.3388 96.8921 54.9724C96.6692 54.5542 96.3219 54.2098 95.8495 53.9396C95.377 53.6696 94.7628 53.5345 94.0067 53.5345C93.2779 53.5345 92.6739 53.6628 92.1948 53.9195C91.7152 54.1759 91.3577 54.5098 91.1218 54.9214C90.8854 55.3335 90.7672 55.7752 90.7672 56.2479C90.7672 56.7875 90.9765 57.267 91.3949 57.6856C91.8131 58.1039 92.4341 58.347 93.2572 58.4142L94.8977 58.5559C95.91 58.6371 96.784 58.8494 97.5194 59.1942C98.2552 59.5382 98.822 59.9974 99.2203 60.571C99.6184 61.1446 99.818 61.8296 99.818 62.6259C99.818 63.5304 99.5749 64.3336 99.089 65.0351C98.6027 65.7375 97.9211 66.284 97.0441 66.6754C96.1662 67.0669 95.1476 67.2623 93.9864 67.2623ZM109.364 18.3978C108.419 18.3978 107.603 18.236 106.914 17.9119C106.226 17.5878 105.666 17.1597 105.234 16.6262C104.802 16.093 104.481 15.4955 104.272 14.8344C104.062 14.173 103.958 13.4977 103.958 12.8093V12.445C103.958 11.7431 104.062 11.0614 104.272 10.4001C104.481 9.73851 104.802 9.14144 105.234 8.60822C105.666 8.07478 106.216 7.6496 106.884 7.33267C107.552 7.01531 108.338 6.85653 109.242 6.85653C110.417 6.85653 111.386 7.10982 112.148 7.61598C112.911 8.12235 113.478 8.77334 113.849 9.56979C114.22 10.3662 114.406 11.2166 114.406 12.1209V12.8053C114.406 12.908 114.322 12.9916 114.219 12.9916H104.995C104.892 12.9916 104.808 12.908 104.808 12.8053V11.72C104.808 11.6177 104.892 11.5342 104.995 11.5342H112.988L112.861 11.7608C112.82 11.8327 112.741 11.8684 112.66 11.852C112.58 11.8346 112.521 11.7697 112.513 11.6875C112.464 11.1811 112.352 10.7286 112.179 10.3295C111.936 9.76938 111.571 9.33342 111.085 9.02325C110.599 8.71287 109.985 8.55747 109.242 8.55747C108.473 8.55747 107.836 8.73275 107.329 9.08393C106.823 9.43511 106.445 9.91379 106.195 10.5216C105.945 11.1293 105.821 11.8308 105.821 12.6273C105.821 13.3964 105.945 14.0887 106.195 14.7026C106.445 15.3168 106.833 15.8027 107.359 16.1602C107.886 16.5182 108.554 16.6975 109.364 16.6975C110.215 16.6975 110.907 16.508 111.439 16.1302C111.925 15.7862 112.234 15.3917 112.367 14.9468C112.391 14.8667 112.462 14.8141 112.545 14.8141H113.991C114.05 14.8141 114.101 14.8388 114.137 14.8855C114.174 14.9323 114.186 14.9879 114.172 15.0452C114.011 15.6907 113.731 16.2547 113.333 16.7376C112.887 17.2774 112.327 17.6891 111.652 17.9726C110.977 18.2559 110.215 18.3978 109.364 18.3978ZM116.929 17.8472V7.40751C116.929 7.30518 117.012 7.22125 117.115 7.22125H118.281C118.384 7.22125 118.468 7.30518 118.468 7.40751V11.8579H118.412C118.361 11.8579 118.316 11.8391 118.28 11.8023C118.243 11.7648 118.225 11.72 118.226 11.6686C118.243 10.6851 118.387 9.84613 118.66 9.15476C118.949 8.4192 119.392 7.85891 119.986 7.47411C120.58 7.08995 121.329 6.89712 122.233 6.89712H122.314C123.678 6.89712 124.687 7.32252 125.341 8.1731C125.996 9.02325 126.324 10.2514 126.324 11.8579V17.8472C126.324 17.9496 126.24 18.0335 126.137 18.0335H124.566C124.464 18.0335 124.38 17.9496 124.38 17.8472V11.453C124.38 10.6162 124.144 9.94466 123.671 9.4385C123.199 8.93234 122.551 8.67926 121.727 8.67926C120.877 8.67926 120.189 8.94206 119.662 9.46852C119.136 9.99519 118.872 10.6971 118.872 11.5741V17.8472C118.872 17.9496 118.789 18.0335 118.686 18.0335H117.115C117.012 18.0335 116.929 17.9496 116.929 17.8472ZM134.253 18.3978C133.308 18.3978 132.491 18.236 131.802 17.9119C131.114 17.5878 130.554 17.1597 130.122 16.6262C129.69 16.093 129.37 15.4955 129.16 14.8344C128.951 14.173 128.846 13.4977 128.846 12.8093V12.445C128.846 11.7431 128.951 11.0614 129.16 10.4001C129.37 9.73851 129.69 9.14144 130.122 8.60822C130.554 8.07478 131.104 7.6496 131.772 7.33267C132.44 7.01531 133.227 6.85653 134.131 6.85653C135.305 6.85653 136.274 7.10982 137.037 7.61598C137.799 8.12235 138.366 8.77334 138.737 9.56979C139.108 10.3662 139.294 11.2166 139.294 12.1209V12.8053C139.294 12.908 139.21 12.9916 139.108 12.9916H129.883C129.78 12.9916 129.697 12.908 129.697 12.8053V11.72C129.697 11.6177 129.78 11.5342 129.883 11.5342H137.876L137.749 11.7608C137.708 11.8327 137.629 11.8684 137.548 11.852C137.468 11.8346 137.409 11.7697 137.401 11.6875C137.352 11.1811 137.24 10.7286 137.067 10.3295C136.824 9.76938 136.459 9.33342 135.974 9.02325C135.487 8.71287 134.873 8.55747 134.131 8.55747C133.361 8.55747 132.724 8.73275 132.218 9.08393C131.711 9.43511 131.333 9.91379 131.083 10.5216C130.834 11.1293 130.709 11.8308 130.709 12.6273C130.709 13.3964 130.834 14.0887 131.083 14.7026C131.333 15.3168 131.722 15.8027 132.248 16.1602C132.775 16.5182 133.442 16.6975 134.253 16.6975C135.103 16.6975 135.795 16.508 136.328 16.1302C136.813 15.7862 137.122 15.3917 137.255 14.9468C137.279 14.8667 137.35 14.8141 137.434 14.8141H138.879C138.938 14.8141 138.989 14.8388 139.026 14.8855C139.062 14.9323 139.074 14.9879 139.06 15.0452C138.9 15.6907 138.619 16.2547 138.221 16.7376C137.776 17.2774 137.216 17.6891 136.54 17.9726C135.866 18.2559 135.103 18.3978 134.253 18.3978ZM141.817 17.8472V7.40751C141.817 7.30518 141.901 7.22125 142.003 7.22125H143.17C143.272 7.22125 143.356 7.30518 143.356 7.40751V11.6756H143.274C143.274 10.096 143.622 8.93868 144.317 8.20312C145.013 7.46735 146.055 7.09967 147.445 7.09967H147.624C147.726 7.09967 147.81 7.18361 147.81 7.28594V8.65452C147.81 8.75685 147.726 8.84079 147.624 8.84079H147.122C146.042 8.84079 145.211 9.1277 144.631 9.70151C144.051 10.2751 143.76 11.102 143.76 12.182V17.8472C143.76 17.9496 143.677 18.0335 143.574 18.0335H142.003C141.901 18.0335 141.817 17.9496 141.817 17.8472ZM152.843 18.3166C152.034 18.3166 151.335 18.1787 150.748 17.9022C150.161 17.6252 149.708 17.2235 149.391 16.6971C149.074 16.1704 148.915 15.5363 148.915 14.7936C148.915 14.0246 149.087 13.3833 149.431 12.8704C149.776 12.3573 150.279 11.9693 150.94 11.7063C151.602 11.4426 152.398 11.3113 153.329 11.3113H155.876C155.979 11.3113 156.063 11.2274 156.063 11.1251V11.0479C156.063 10.3054 155.87 9.74528 155.486 9.36746C155.101 8.98942 154.537 8.80062 153.795 8.80062C153.376 8.80062 152.945 8.80738 152.499 8.82091C152.054 8.83402 151.629 8.84755 151.224 8.86108C150.906 8.87166 150.622 8.88667 150.371 8.90548C150.317 8.90929 150.27 8.8928 150.23 8.85622C150.191 8.81964 150.171 8.77334 150.171 8.72006V7.39208C150.171 7.29461 150.244 7.21448 150.341 7.20666C150.587 7.18551 150.844 7.1667 151.112 7.15042C151.443 7.13054 151.784 7.11659 152.135 7.10982C152.486 7.10306 152.823 7.1001 153.147 7.1001C154.254 7.1001 155.158 7.23139 155.86 7.49441C156.562 7.75764 157.082 8.18663 157.419 8.78011C157.757 9.37422 157.926 10.1774 157.926 11.1898V12.5805C157.926 12.6839 157.841 12.7687 157.737 12.7687H153.249C152.465 12.7687 151.865 12.9579 151.447 13.336C151.028 13.7142 150.819 14.2001 150.819 14.7936C150.819 15.3877 151.028 15.867 151.447 16.2311C151.865 16.5962 152.465 16.7782 153.249 16.7782C153.707 16.7782 154.146 16.6937 154.565 16.5249C154.983 16.3564 155.33 16.0729 155.607 15.6748C155.853 15.3213 156 14.8483 156.049 14.2559C156.057 14.158 156.138 14.0829 156.236 14.0829H157.737C157.841 14.0829 157.926 14.1677 157.926 14.2713V17.8472C157.926 17.9496 157.842 18.0335 157.739 18.0335H156.573C156.471 18.0335 156.387 17.9496 156.387 17.8472V16.8091C156.387 16.7237 156.332 16.6512 156.248 16.629C156.166 16.607 156.082 16.6421 156.039 16.7159C156.038 16.7197 156.034 16.7237 156.033 16.7271C155.729 17.2466 155.31 17.6421 154.777 17.9119C154.244 18.1819 153.599 18.3166 152.843 18.3166ZM159.882 4.60503V3.439C159.882 3.33624 159.965 3.25273 160.068 3.25273H161.566H163.137C163.24 3.25273 163.324 3.33624 163.324 3.439V4.60503V17.8472C163.324 17.9496 163.24 18.0335 163.137 18.0335H161.566C161.463 18.0335 161.38 17.9496 161.38 17.8472V4.97756C161.38 4.87523 161.296 4.7913 161.194 4.7913H160.068C159.965 4.7913 159.882 4.70778 159.882 4.60503ZM103.035 29.0373V27.8715C103.035 27.7687 103.118 27.685 103.221 27.685H104.719H106.291C106.393 27.685 106.477 27.7687 106.477 27.8715V29.0373V42.2797C106.477 42.382 106.393 42.466 106.291 42.466H104.719C104.617 42.466 104.533 42.382 104.533 42.2797V29.41C104.533 29.3077 104.449 29.2238 104.347 29.2238H103.221C103.118 29.2238 103.035 29.1398 103.035 29.0373ZM114.568 42.8303C113.623 42.8303 112.806 42.6683 112.117 42.3444C111.429 42.0203 110.869 41.5919 110.437 41.0587C110.005 40.5253 109.685 39.928 109.475 39.2666C109.266 38.6051 109.162 37.9302 109.162 37.2418V36.8775C109.162 36.1755 109.266 35.4939 109.475 34.8325C109.685 34.1708 110.005 33.5739 110.437 33.0405C110.869 32.5073 111.419 32.0819 112.087 31.7649C112.756 31.4478 113.542 31.289 114.446 31.289C115.62 31.289 116.589 31.5423 117.352 32.0485C118.114 32.5546 118.681 33.2058 119.052 34.0023C119.424 34.7987 119.609 35.6489 119.609 36.5534V37.2375C119.609 37.3399 119.525 37.4238 119.423 37.4238H110.198C110.095 37.4238 110.012 37.3399 110.012 37.2375V36.1525C110.012 36.0502 110.095 35.9666 110.198 35.9666H118.192L118.064 36.1931C118.024 36.265 117.944 36.3007 117.863 36.2842C117.783 36.2669 117.725 36.2022 117.716 36.1197C117.667 35.6136 117.555 35.1611 117.382 34.7617C117.139 34.2016 116.774 33.7659 116.289 33.4557C115.802 33.1451 115.188 32.9897 114.446 32.9897C113.677 32.9897 113.039 33.1652 112.533 33.5164C112.027 33.8676 111.648 34.3463 111.399 34.9541C111.149 35.5616 111.024 36.2631 111.024 37.0595C111.024 37.8289 111.149 38.5211 111.399 39.1349C111.648 39.7491 112.037 40.2352 112.563 40.5927C113.09 40.9507 113.758 41.1297 114.568 41.1297C115.418 41.1297 116.11 40.9405 116.643 40.5625C117.129 40.2185 117.438 39.8242 117.57 39.3791C117.595 39.299 117.665 39.2463 117.749 39.2463H119.194C119.254 39.2463 119.304 39.2713 119.341 39.3178C119.377 39.3645 119.389 39.4203 119.375 39.4774C119.215 40.1225 118.934 40.6872 118.536 41.1697C118.091 41.7097 117.53 42.1215 116.856 42.4049C116.181 42.6884 115.418 42.8303 114.568 42.8303ZM133.544 42.2797V31.84C133.544 31.7377 133.628 31.6537 133.73 31.6537H134.896C134.999 31.6537 135.083 31.7377 135.083 31.84V36.2903H135.027C134.976 36.2903 134.931 36.2715 134.895 36.2345C134.858 36.1973 134.84 36.1525 134.841 36.1009C134.857 35.1175 135.002 34.2784 135.275 33.587C135.564 32.8517 136.007 32.2912 136.601 31.9066C137.195 31.5222 137.944 31.3296 138.848 31.3296H138.929C140.292 31.3296 141.302 31.7548 141.956 32.6056C142.611 33.4557 142.938 34.6839 142.938 36.2903V42.2797C142.938 42.382 142.855 42.466 142.752 42.466H141.181C141.079 42.466 140.995 42.382 140.995 42.2797V35.8853C140.995 35.0486 140.759 34.3771 140.286 33.871C139.814 33.3646 139.166 33.1117 138.342 33.1117C137.492 33.1117 136.803 33.3745 136.277 33.901C135.751 34.4275 135.487 35.1294 135.487 36.0064V42.2797C135.487 42.382 135.404 42.466 135.301 42.466H133.73C133.628 42.466 133.544 42.382 133.544 42.2797ZM145.137 33.006V31.84C145.137 31.7377 145.221 31.6537 145.324 31.6537H146.984H148.555C148.658 31.6537 148.742 31.7377 148.742 31.84V33.006V42.2797C148.742 42.382 148.658 42.466 148.555 42.466H146.984C146.881 42.466 146.797 42.382 146.797 42.2797V33.3786C146.797 33.2762 146.714 33.1923 146.612 33.1923H145.324C145.221 33.1923 145.137 33.1088 145.137 33.006ZM147.344 29.9122C146.912 29.9122 146.592 29.7974 146.383 29.5682C146.173 29.3386 146.069 29.0483 146.069 28.6975C146.069 28.3463 146.173 28.0563 146.383 27.8269C146.592 27.5975 146.912 27.4827 147.344 27.4827C147.776 27.4827 148.097 27.5975 148.306 27.8269C148.515 28.0563 148.62 28.3463 148.62 28.6975C148.62 29.0483 148.515 29.3386 148.306 29.5682C148.097 29.7974 147.776 29.9122 147.344 29.9122ZM152.277 42.2797V31.84C152.277 31.7377 152.36 31.6537 152.463 31.6537H153.629C153.731 31.6537 153.815 31.7377 153.815 31.84V36.2903H153.76C153.709 36.2903 153.664 36.2715 153.628 36.2345C153.591 36.1973 153.574 36.1525 153.574 36.1009C153.59 35.1175 153.735 34.2784 154.008 33.587C154.298 32.8517 154.74 32.2912 155.334 31.9066C155.928 31.5222 156.677 31.3296 157.582 31.3296H157.662C159.026 31.3296 160.035 31.7548 160.69 32.6056C161.344 33.4557 161.672 34.6839 161.672 36.2903V42.2797C161.672 42.382 161.588 42.466 161.485 42.466H159.914C159.812 42.466 159.728 42.382 159.728 42.2797V35.8853C159.728 35.0486 159.492 34.3771 159.019 33.871C158.547 33.3646 157.899 33.1117 157.075 33.1117C156.225 33.1117 155.536 33.3745 155.01 33.901C154.484 34.4275 154.22 35.1294 154.22 36.0064V42.2797C154.22 42.382 154.137 42.466 154.034 42.466H152.463C152.36 42.466 152.277 42.382 152.277 42.2797ZM168.722 46.6772C168.222 46.6772 167.719 46.6573 167.213 46.6167C166.766 46.5808 166.336 46.5343 165.926 46.4778C165.833 46.4645 165.766 46.3863 165.766 46.293V45.0276C165.766 44.9718 165.787 44.924 165.829 44.8875C165.871 44.8511 165.921 44.8357 165.976 44.8428C166.398 44.898 166.838 44.9462 167.294 44.9866C167.827 45.034 168.33 45.0577 168.803 45.0577C169.788 45.0577 170.574 44.9259 171.162 44.6629C171.749 44.3995 172.174 43.9876 172.437 43.4275C172.7 42.867 172.832 42.1482 172.832 41.2712V39.2438C172.832 39.2178 172.837 39.1952 172.846 39.1715L172.961 38.8985C172.999 38.8097 173.097 38.7643 173.19 38.7937C173.282 38.8228 173.336 38.9173 173.315 39.0119C173.199 39.529 173.024 39.9887 172.791 40.3906C172.373 41.112 171.829 41.6526 171.162 42.0101C170.493 42.3677 169.754 42.5465 168.944 42.5465C168.188 42.5465 167.497 42.4015 166.869 42.1114C166.241 41.8211 165.701 41.42 165.249 40.9069C164.797 40.394 164.446 39.803 164.196 39.1349C163.947 38.4668 163.822 37.7615 163.822 37.0189V36.6546C163.822 35.8988 163.95 35.1935 164.206 34.5389C164.463 33.8841 164.82 33.3139 165.28 32.828C165.739 32.3419 166.289 31.9637 166.93 31.6943C167.571 31.4241 168.276 31.289 169.046 31.289C169.95 31.289 170.746 31.4816 171.435 31.8662C172.123 32.2506 172.666 32.8111 173.065 33.5464C173.439 34.2378 173.656 35.0761 173.714 36.0595C173.717 36.1115 173.701 36.1574 173.666 36.1958C173.631 36.2341 173.587 36.2548 173.535 36.2563L173.349 36.2631C173.296 36.265 173.251 36.2476 173.213 36.2113C173.175 36.1747 173.156 36.1295 173.156 36.0768V31.84C173.156 31.7377 173.24 31.6537 173.343 31.6537H174.509C174.611 31.6537 174.695 31.7377 174.695 31.84V41.1904C174.695 42.4858 174.496 43.5356 174.098 44.3388C173.699 45.142 173.065 45.7321 172.194 46.1104C171.323 46.4884 170.166 46.6772 168.722 46.6772ZM169.309 40.765C169.957 40.765 170.547 40.6236 171.08 40.3396C171.614 40.0563 172.039 39.648 172.356 39.1146C172.673 38.5816 172.832 37.9437 172.832 37.2012V36.2698C172.832 35.5408 172.666 34.9266 172.336 34.4275C172.005 33.9281 171.576 33.5498 171.05 33.2936C170.524 33.0371 169.95 32.9088 169.329 32.9088C168.627 32.9088 168.006 33.0711 167.466 33.395C166.926 33.7187 166.508 34.1742 166.211 34.7617C165.914 35.3489 165.766 36.0404 165.766 36.8367C165.766 37.6331 165.917 38.3283 166.221 38.9226C166.525 39.5161 166.943 39.972 167.477 40.2893C168.009 40.6062 168.62 40.765 169.309 40.765ZM113.29 66.712V56.2723C113.29 56.1699 113.374 56.086 113.477 56.086H114.643C114.746 56.086 114.829 56.1699 114.829 56.2723V60.7226H114.774C114.722 60.7226 114.677 60.7038 114.641 60.667C114.605 60.6296 114.587 60.585 114.588 60.5334C114.604 59.5498 114.749 58.7109 115.021 58.0195C115.311 57.2839 115.754 56.7237 116.348 56.3389C116.942 55.9543 117.691 55.7619 118.595 55.7619H118.676C120.039 55.7619 121.048 56.1873 121.703 57.0378C122.358 57.8882 122.685 59.1162 122.685 60.7226V66.712C122.685 66.8143 122.601 66.8982 122.499 66.8982H120.928C120.825 66.8982 120.742 66.8143 120.742 66.712V60.3177C120.742 59.4809 120.505 58.8092 120.033 58.3028C119.56 57.7966 118.913 57.5438 118.089 57.5438C117.239 57.5438 116.55 57.8068 116.024 58.3335C115.498 58.8599 115.234 59.5619 115.234 60.4389V66.712C115.234 66.8143 115.15 66.8982 115.048 66.8982H113.477C113.374 66.8982 113.29 66.8143 113.29 66.712ZM124.884 57.4383V56.2723C124.884 56.1699 124.968 56.086 125.07 56.086H126.731H128.302C128.404 56.086 128.488 56.1699 128.488 56.2723V57.4383V66.712C128.488 66.8143 128.404 66.8982 128.302 66.8982H126.731C126.628 66.8982 126.544 66.8143 126.544 66.712V57.811C126.544 57.7085 126.461 57.6245 126.358 57.6245H125.07C124.968 57.6245 124.884 57.541 124.884 57.4383ZM127.091 54.3444C126.659 54.3444 126.339 54.2296 126.129 54.0005C125.92 53.7708 125.815 53.4808 125.815 53.13C125.815 52.7788 125.92 52.4885 126.129 52.2593C126.339 52.0297 126.659 51.9149 127.091 51.9149C127.523 51.9149 127.844 52.0297 128.053 52.2593C128.262 52.4885 128.367 52.7788 128.367 53.13C128.367 53.4808 128.262 53.7708 128.053 54.0005C127.844 54.2296 127.523 54.3444 127.091 54.3444ZM130.444 57.3577V56.2723C130.444 56.1699 130.528 56.086 130.63 56.086H132.121C132.223 56.086 132.307 56.002 132.307 55.8997V52.9917C132.307 52.8894 132.391 52.8059 132.493 52.8059H133.983C134.086 52.8059 134.169 52.8894 134.169 52.9917V55.8997C134.169 56.002 134.253 56.086 134.356 56.086H137.709C137.811 56.086 137.895 56.1699 137.895 56.2723V57.3577C137.895 57.4603 137.811 57.5438 137.709 57.5438H134.356C134.253 57.5438 134.169 57.6277 134.169 57.7301V63.456C134.169 64.0368 134.328 64.4854 134.646 64.8025C134.963 65.1199 135.412 65.2783 135.992 65.2783H137.709C137.811 65.2783 137.895 65.3622 137.895 65.4647V66.8331C137.895 66.9359 137.811 67.0194 137.709 67.0194H136.235C135.425 67.0194 134.727 66.9048 134.139 66.6754C133.552 66.4458 133.1 66.051 132.782 65.491C132.466 64.9305 132.307 64.1714 132.307 63.2132V57.7301C132.307 57.6277 132.223 57.5438 132.121 57.5438H130.63C130.528 57.5438 130.444 57.4603 130.444 57.3577ZM150.21 57.3577V56.2723C150.21 56.1699 150.294 56.086 150.396 56.086H151.887C151.989 56.086 152.072 56.002 152.072 55.8997V52.9917C152.072 52.8894 152.156 52.8059 152.259 52.8059H153.749C153.851 52.8059 153.935 52.8894 153.935 52.9917V55.8997C153.935 56.002 154.019 56.086 154.121 56.086H157.475C157.577 56.086 157.661 56.1699 157.661 56.2723V57.3577C157.661 57.4603 157.577 57.5438 157.475 57.5438H154.121C154.019 57.5438 153.935 57.6277 153.935 57.7301V63.456C153.935 64.0368 154.094 64.4854 154.411 64.8025C154.728 65.1199 155.177 65.2783 155.758 65.2783H157.475C157.577 65.2783 157.661 65.3622 157.661 65.4647V66.8331C157.661 66.9359 157.577 67.0194 157.475 67.0194H156.001C155.191 67.0194 154.492 66.9048 153.905 66.6754C153.318 66.4458 152.865 66.051 152.548 65.491C152.231 64.9305 152.072 64.1714 152.072 63.2132V57.7301C152.072 57.6277 151.989 57.5438 151.887 57.5438H150.396C150.294 57.5438 150.21 57.4603 150.21 57.3577ZM159.05 57.4383V56.2723C159.05 56.1699 159.134 56.086 159.236 56.086H160.896H162.468C162.57 56.086 162.654 56.1699 162.654 56.2723V57.4383V66.712C162.654 66.8143 162.57 66.8982 162.468 66.8982H160.896C160.794 66.8982 160.71 66.8143 160.71 66.712V57.811C160.71 57.7085 160.626 57.6245 160.524 57.6245H159.236C159.134 57.6245 159.05 57.541 159.05 57.4383ZM161.257 54.3444C160.825 54.3444 160.504 54.2296 160.295 54.0005C160.086 53.7708 159.981 53.4808 159.981 53.13C159.981 52.7788 160.086 52.4885 160.295 52.2593C160.504 52.0297 160.825 51.9149 161.257 51.9149C161.689 51.9149 162.009 52.0297 162.219 52.2593C162.428 52.4885 162.532 52.7788 162.532 53.13C162.532 53.4808 162.428 53.7708 162.219 54.0005C162.009 54.2296 161.689 54.3444 161.257 54.3444ZM170.797 67.2623C169.853 67.2623 169.022 67.1008 168.307 66.7767C167.592 66.4527 166.988 66.0244 166.495 65.491C166.002 64.9577 165.631 64.3604 165.381 63.6991C165.132 63.0373 165.007 62.3625 165.007 61.674V61.3097C165.007 60.6213 165.135 59.9431 165.391 59.2752C165.648 58.6066 166.026 58.0064 166.525 57.4725C167.025 56.9397 167.632 56.5143 168.348 56.1974C169.063 55.8801 169.879 55.7213 170.797 55.7213C171.715 55.7213 172.532 55.8801 173.247 56.1974C173.963 56.5143 174.571 56.9397 175.07 57.4725C175.569 58.0064 175.947 58.6066 176.203 59.2752C176.46 59.9431 176.588 60.6213 176.588 61.3097V61.674C176.588 62.3625 176.463 63.0373 176.214 63.6991C175.964 64.3604 175.593 64.9577 175.1 65.491C174.607 66.0244 174.003 66.4527 173.288 66.7767C172.573 67.1008 171.742 67.2623 170.797 67.2623ZM170.797 65.5214C171.608 65.5214 172.299 65.3427 172.873 64.9848C173.447 64.6269 173.885 64.1446 174.189 63.5371C174.493 62.9293 174.645 62.2476 174.645 61.492C174.645 60.7226 174.489 60.0342 174.179 59.4268C173.868 58.8193 173.426 58.3402 172.852 57.9891C172.279 57.6383 171.594 57.4628 170.797 57.4628C170.015 57.4628 169.333 57.6383 168.752 57.9891C168.172 58.3402 167.727 58.8193 167.416 59.4268C167.105 60.0342 166.951 60.7226 166.951 61.492C166.951 62.2476 167.102 62.9293 167.406 63.5371C167.71 64.1446 168.148 64.6269 168.722 64.9848C169.296 65.3427 169.987 65.5214 170.797 65.5214Z" fill="#1E1E23"/>
</svg>
