<svg width="40" height="40" viewBox="0 0 40 40" fill="none" xmlns="http://www.w3.org/2000/svg">
<circle cx="20.0003" cy="20" r="18" transform="rotate(-3.67576 20.0003 20)" fill="#4682F0" fill-opacity="0.25"/>
<path d="M12.9165 27.6667C12.5832 27.6667 12.2915 27.5417 12.0415 27.2917C11.7915 27.0417 11.6665 26.75 11.6665 26.4167V15.5833C11.6665 15.25 11.7915 14.9583 12.0415 14.7083C12.2915 14.4583 12.5832 14.3333 12.9165 14.3333H27.0832C27.4165 14.3333 27.7082 14.4583 27.9582 14.7083C28.2082 14.9583 28.3332 15.25 28.3332 15.5833V26.4167C28.3332 26.75 28.2082 27.0417 27.9582 27.2917C27.7082 27.5417 27.4165 27.6667 27.0832 27.6667H12.9165ZM19.9998 21.375L12.9165 16.7292V26.4167H27.0832V16.7292L19.9998 21.375ZM19.9998 20.125L26.9998 15.5833H13.0207L19.9998 20.125ZM12.9165 16.7292V15.5833V26.4167V16.7292Z" fill="#4682F0"/>
</svg>
