<svg width="36" height="36" viewBox="0 0 36 36" fill="none" xmlns="http://www.w3.org/2000/svg">
<circle cx="18" cy="18" r="18" fill="#4682F0" fill-opacity="0.25"/>
<path d="M24.5625 25.5C22.8681 25.5 21.184 25.0833 19.5104 24.25C17.8368 23.4167 16.3333 22.3333 15 21C13.6667 19.6667 12.5833 18.1632 11.75 16.4896C10.9167 14.816 10.5 13.1319 10.5 11.4375C10.5 11.1736 10.5903 10.9514 10.7708 10.7708C10.9514 10.5903 11.1736 10.5 11.4375 10.5H14.3542C14.5486 10.5 14.7188 10.566 14.8646 10.6979C15.0104 10.8299 15.1042 11.0069 15.1458 11.2292L15.7083 13.8542C15.7361 14.0486 15.7326 14.2257 15.6979 14.3854C15.6632 14.5451 15.5903 14.6806 15.4792 14.7917L13.3958 16.8958C14.1736 18.1875 15.0451 19.3125 16.0104 20.2708C16.9757 21.2292 18.0694 22.0417 19.2917 22.7083L21.2708 20.6667C21.4097 20.5139 21.5694 20.4062 21.75 20.3437C21.9306 20.2812 22.1111 20.2708 22.2917 20.3125L24.7708 20.8542C24.9792 20.8958 25.1528 21 25.2917 21.1667C25.4306 21.3333 25.5 21.5278 25.5 21.75V24.5625C25.5 24.8264 25.4097 25.0486 25.2292 25.2292C25.0486 25.4097 24.8264 25.5 24.5625 25.5ZM12.7708 15.75L14.4583 14.0417L13.9792 11.75H11.75C11.75 12.2917 11.8333 12.8854 12 13.5312C12.1667 14.1771 12.4236 14.9167 12.7708 15.75ZM20.4583 23.3125C21.0278 23.5764 21.6458 23.7917 22.3125 23.9583C22.9792 24.125 23.625 24.2222 24.25 24.25V22.0208L22.1042 21.5833L20.4583 23.3125Z" fill="#4682F0"/>
</svg>
